<svg version="1.1" xmlns="http://www.w3.org/2000/svg" xmlns:xlink="http://www.w3.org/1999/xlink" preserveAspectRatio="xMidYMid meet" viewBox="564 249 186 185"><g data-item-type="text" data-item="Business" id="logo__item--business" class="logo__item">
                <g class="logo__item__inner" transform="translate(565.4166641235352 408.38940770994094) scale(1 1) rotate(0 0 0)">
                    <text data-part-id="logo__item--business" dy="0" dominant-baseline="auto" alignment-baseline="auto" font-family="Poppins" font-size="32px" fill="#F6921E" letter-spacing="0" font-weight="bold" font-style="normal" data-font-family="Poppins" data-font-weight="bold" data-font-style="normal" data-ttf-url="/builder_assets/fontsttf/font-poppins-bold-normal.ttf" style="--darkreader-inline-fill: #f79b30;" data-darkreader-inline-fill="">NewsTime</text>
                </g>
            </g><g data-item-type="image" data-item="Image" data-logo-item="" id="logo__item--logo_0" class="logo__item">
    <g class="logo__item__inner" transform="translate(576.1853549866013 241) scale(1.4106049354814407 1.4106049354814407) rotate(0 0 0)">
        

<g>
	<g>
		<path fill="#F6921E" d="M67.87,88.713c-1.535,1.925-3.561,3.508-5.853,4.431c0.866-0.909,2.327-1.67,2.277-3.03    c-0.059-1.41-1.993-1.537-3.14-1.654c-3.946-0.115-7.838,1.098-11.33,2.861c-1.746,0.946-3.703,0.903-4.598,0.188    c-0.56-0.448-1.156-2.221-0.226-2.846c5.085-3.407,11.131-5.49,17.263-5.71c2.03,0.068,4.343,0.159,5.929,1.597    C69.416,85.703,68.783,87.582,67.87,88.713z" data-part-id="logo__item--logo_0__0" style="--darkreader-inline-fill: #b86607;" data-darkreader-inline-fill=""></path>
		<path fill="#F6921E" d="M86.369,61.745c-0.677,2.773-1.298,5.596-2.59,8.157c0.608-2.256,1.104-4.697,0.233-6.959    c-1.168-3.364-4.474-5.409-7.752-6.34c-6.373-1.8-13.142-1.016-19.488,0.457c-3.128,0.746-6.198,1.748-9.184,2.926    c-1.415,0.549-3.171,0.56-4.39-0.443c-1.241-1.019-2.088-2.706-1.691-4.324c0.327-1.488,1.575-2.61,2.957-3.141    c4.915-1.953,10.032-3.434,15.256-4.288c5.411-0.854,11.023-1.131,16.393,0.116c3.427,0.826,6.93,2.412,8.98,5.4    C86.796,55.738,87.053,58.924,86.369,61.745z" data-part-id="logo__item--logo_0__1" style="--darkreader-inline-fill: #b86607;" data-darkreader-inline-fill=""></path>
		<path fill="#F6921E" d="M80.131,27.985c-4.176-5.183-11.144-6.686-17.471-6.944c-10.056-0.261-20.004,2.255-29.312,5.926    c-1.404,0.482-3.001,0.727-4.419,0.159c-1.201-0.472-1.954-1.913-1.444-3.149c0.662-1.706,2.364-2.714,4.001-3.333    c7.937-3.073,16.356-5.183,24.904-5.346c5.706-0.044,11.833,0.688,16.562,4.168C75.799,21.878,78.036,24.922,80.131,27.985z" data-part-id="logo__item--logo_0__2" style="--darkreader-inline-fill: #b86607;" data-darkreader-inline-fill=""></path>
	</g>
	<g>
		<path fill="#EB008B" d="M76.318,82.094c-1.186,1.356-2.629,2.663-4.123,3.498c1.149-2.048,2.756-4.044,2.677-6.527    c0.061-2.145-1.542-3.947-3.423-4.752c-3.394-1.491-7.249-1.249-10.82-0.636c-3.904,0.741-7.683,2.095-11.207,3.936    c-2.139,1.143-4.576-0.717-5.463-2.644c-0.688-1.357-0.047-3.082,1.349-3.672c6.278-3.279,13.186-5.535,20.281-5.986    c3.892-0.152,8.068,0.113,11.413,2.303c2.117,1.331,3.392,3.853,3.158,6.348C79.902,77.031,78.27,79.787,76.318,82.094z" data-part-id="logo__item--logo_0__3" style="--darkreader-inline-fill: #bc006f;" data-darkreader-inline-fill=""></path>
		<path fill="#EB008B" d="M16.354,57.792c-1.055,0.979-2.753,1.503-4.055,0.703c-1.804-1.153-2.357-3.646-1.611-5.588    c0.549-1.745,2.052-2.898,3.383-4.041c6.013-5.096,12.847-9.147,20.031-12.355c7.441-3.274,15.309-5.667,23.384-6.704    c6.595-0.774,13.524-0.825,19.794,1.626c3.579,1.405,6.977,4.074,8.09,7.897c0.895,3.346,1.674,6.765,1.832,10.243    c-0.282-3.412-2.112-6.624-5.008-8.479c-4.964-3.28-11.163-3.884-16.975-3.731c-8.584,0.324-16.998,2.539-24.945,5.703    C31.566,46.601,23.302,51.423,16.354,57.792z" data-part-id="logo__item--logo_0__4" style="--darkreader-inline-fill: #bc006f;" data-darkreader-inline-fill=""></path>
		<path fill="#EB008B" d="M21.229,18.917c-1.124,0.473-2.509,1.211-3.688,0.495c-0.727-1.608,1.146-2.881,2.292-3.699    c5.325-2.982,11.145-5.056,17.088-6.423c6.303-1.332,13.054-1.954,19.255,0.174c2.987,1.04,5.936,2.259,8.635,3.91    c-5.36-2.783-11.588-3.114-17.502-2.546C38.193,11.785,29.37,14.749,21.229,18.917z" data-part-id="logo__item--logo_0__5" style="--darkreader-inline-fill: #bc006f;" data-darkreader-inline-fill=""></path>
	</g>
</g>

    </g>
</g><g data-item-type="shape" data-item="Shape" data-logo-item="" id="logo__item--shape_1" class="logo__item">
    <g class="logo__item__inner" transform="translate(700 396.5) scale(0.5 0.5) rotate(0 0 0)">
        
<g>
	<path fill="#fc6701" d="M23.5,48.7c0.7-0.1,1.3-0.5,1.8-0.9c0.4-0.4,0.6-1.1,0.6-1.8c0-0.7-0.2-1.2-0.6-1.7   c-0.4-0.4-0.9-0.4-1.6-0.5c-0.4,0-1.7,0.2-3.7,0.2H17v5h3.3C22,49,23.1,48.7,23.5,48.7z" data-part-id="logo__item--shape_1__0"></path>
	<path fill="#fc6701" d="M24.8,52.8C24.2,52.6,22.9,53,21,53h-4v5h4.5c1.6,0,2.6-0.1,3-0.2c0.6-0.1,1.2-0.4,1.6-0.9   c0.4-0.5,0.6-1.1,0.6-1.9c0-0.6-0.2-1-0.5-1.4C25.9,53.1,25.4,53,24.8,52.8z" data-part-id="logo__item--shape_1__1"></path>
	<linearGradient id="logo__item--shape_1__2" gradientUnits="objectBoundingBox" x1="0.5" y1="0" x2="0.5" y2="1"><stop offset="0" style="stop-color:#dd0909"></stop><stop offset="1" style="stop-color:#999999"></stop></linearGradient><path fill="#fc6701" d="M96,37.4c0-3.5-2.9-6.4-6.4-6.4H10.4C6.9,31,4,33.9,4,37.4v26.2c0,3.5,2.9,6.4,6.4,6.4h79.2   c3.5,0,6.4-2.9,6.4-6.4V37.4z M30.5,58.1c-0.5,0.9-1.1,1.7-1.9,2.2c-0.8,0.6-1.8,1.2-2.9,1.3C25,61.7,23.2,62,20.4,62H13V40h8.7   c1.7,0,3,0,3.8,0.1c0.8,0.1,1.6,0.4,2.3,0.9c0.7,0.5,1.2,1,1.7,1.8c0.4,0.8,0.7,1.6,0.7,2.5c0,1-0.3,1.9-0.8,2.8   c-0.5,0.8-1.3,1.5-2.2,1.9c1.3,0.4,2.3,1,3,2c0.7,0.9,1.1,2,1.1,3.3C31.2,56.2,31,57.2,30.5,58.1z M51,62H35V40h16v4H39v5h12v4H39   v5h12V62z M64,62h-5V44h-6v-4h18v4h-7V62z M86.1,62l-1.9-6h-8.7l-1.8,6h-4.6l8.4-22h4.6l8.7,22H86.1z" data-part-id="logo__item--shape_1__2"></path>
	<polygon fill="#fc6701" points="76.9,53 82.8,53 79.8,45" data-part-id="logo__item--shape_1__3"></polygon>
</g>

    </g>
</g></svg>