<?xml version="1.0" standalone="no"?>
<!DOCTYPE svg PUBLIC "-//W3C//DTD SVG 20010904//EN"
 "http://www.w3.org/TR/2001/REC-SVG-20010904/DTD/svg10.dtd">
<svg version="1.0" xmlns="http://www.w3.org/2000/svg"
 width="744.000000pt" height="744.000000pt" viewBox="0 0 744.000000 744.000000"
 preserveAspectRatio="xMidYMid meet">
<metadata>
Created by potrace 1.14, written by Peter Selinger 2001-2017
</metadata>
<g transform="translate(0.000000,744.000000) scale(0.100000,-0.100000)"
fill="#000000" stroke="none">
<path d="M3025 7282 c-1 -2 -29 -5 -61 -7 -33 -2 -81 -7 -109 -11 -27 -3 -61
-8 -75 -10 -14 -2 -36 -5 -50 -8 -14 -2 -43 -7 -65 -11 -67 -11 -306 -72 -372
-94 -35 -12 -71 -22 -80 -24 -10 -1 -22 -5 -28 -8 -5 -4 -28 -12 -50 -19 -22
-7 -53 -18 -70 -25 -16 -7 -57 -23 -90 -35 -33 -13 -130 -57 -215 -98 -210
-101 -290 -170 -290 -251 0 -66 88 -67 224 -3 48 23 92 42 97 42 5 0 9 5 9 10
0 6 6 10 13 10 7 0 35 11 63 24 141 67 260 114 459 181 92 31 175 58 184 60 9
3 60 15 113 29 54 14 114 27 134 31 20 3 39 7 43 9 3 3 25 7 47 10 40 6 68 11
114 21 14 3 45 7 70 10 25 2 61 7 80 9 98 15 401 22 460 12 14 -3 56 -7 95
-11 38 -4 72 -8 75 -10 3 -2 24 -6 47 -10 51 -7 193 -49 223 -65 12 -6 24 -9
27 -6 15 14 -383 180 -483 201 -10 2 -51 10 -89 19 -39 8 -102 18 -140 21 -74
7 -304 12 -310 7z"/>
<path d="M4066 7018 c3 -5 10 -6 15 -3 13 9 11 12 -6 12 -8 0 -12 -4 -9 -9z"/>
<path d="M3577 6874 c-1 -1 -40 -5 -87 -8 -115 -7 -212 -16 -230 -21 -8 -3
-33 -7 -55 -10 -41 -5 -55 -8 -140 -25 -27 -6 -60 -12 -73 -15 -13 -2 -31 -6
-40 -9 -9 -3 -29 -7 -43 -10 -99 -17 -513 -144 -606 -187 -24 -10 -46 -19 -51
-19 -25 0 -141 -75 -170 -110 -104 -126 -39 -261 129 -267 57 -2 127 11 179
34 8 3 20 7 25 9 6 1 42 14 80 29 170 66 544 177 675 201 14 3 32 7 40 9 8 2
31 7 50 10 19 3 58 10 85 15 28 5 66 12 85 15 19 2 49 6 66 9 29 4 132 15 219
22 53 4 370 5 415 1 33 -3 159 -19 170 -22 3 -1 25 -5 50 -9 224 -40 428 -133
561 -255 47 -43 74 -55 43 -19 -10 12 -22 27 -26 33 -110 157 -260 320 -353
386 -42 30 -153 87 -230 120 -21 8 -116 36 -154 44 -11 3 -31 7 -43 10 -60 14
-108 21 -198 31 -56 6 -368 13 -373 8z"/>
<path d="M4006 6083 c-2 -2 -41 -5 -87 -8 -46 -2 -104 -7 -129 -10 -91 -10
-145 -17 -165 -21 -11 -3 -36 -7 -55 -10 -51 -8 -68 -11 -142 -27 -38 -8 -68
-12 -68 -10 0 3 -7 0 -15 -7 -8 -7 -15 -10 -15 -7 0 9 -282 -68 -435 -118
-513 -169 -1026 -432 -1420 -728 -183 -139 -351 -288 -338 -301 4 -3 2 -6 -4
-6 -20 0 -55 -102 -58 -169 -2 -36 0 -70 4 -76 5 -5 11 -23 15 -38 4 -16 28
-50 54 -76 44 -44 69 -54 127 -53 46 1 120 42 180 99 88 84 276 230 427 331
101 68 306 192 318 192 5 0 15 6 22 13 23 22 449 227 472 227 7 0 17 5 23 11
6 6 17 12 24 13 8 2 25 8 39 13 99 41 366 133 427 148 10 3 59 16 108 30 50
15 99 28 110 30 22 5 149 33 180 40 56 13 73 16 105 19 35 4 91 13 140 21 14
3 57 7 95 11 39 3 86 8 105 10 138 13 508 0 580 -21 8 -3 33 -7 55 -10 71 -10
238 -66 318 -106 200 -100 301 -206 370 -391 14 -36 22 -70 19 -74 -4 -4 -1
-4 6 0 7 4 10 11 8 15 -5 8 -11 39 -20 111 -6 40 -49 251 -61 290 -2 8 -11 42
-20 75 -9 33 -23 70 -31 82 -7 12 -14 27 -14 33 0 6 -4 16 -10 23 -5 7 -32 39
-59 73 -54 66 -107 112 -186 161 -52 33 -153 83 -166 83 -4 0 -20 5 -36 12
-15 6 -30 12 -33 13 -28 8 -87 25 -92 25 -4 1 -22 6 -40 11 -18 5 -48 12 -67
15 -18 3 -43 8 -55 10 -11 2 -39 6 -61 9 -22 2 -65 7 -95 11 -54 6 -349 12
-354 7z"/>
<path d="M4217 5084 c-1 -1 -42 -5 -91 -9 -49 -4 -96 -8 -105 -10 -9 -1 -45
-6 -81 -10 -115 -12 -340 -61 -590 -129 -8 -2 -58 -18 -110 -36 -52 -18 -101
-33 -107 -33 -7 0 -13 -4 -13 -7 0 -4 -13 -10 -29 -13 -50 -10 -162 -68 -197
-103 -113 -109 -78 -300 70 -376 44 -23 125 -30 166 -15 14 5 32 10 40 12 8 2
49 16 91 33 70 27 271 93 294 97 6 1 12 3 15 4 3 2 12 4 20 6 8 1 35 8 60 15
56 15 75 19 210 45 14 3 36 7 50 10 14 3 43 7 65 10 22 2 49 7 61 9 38 8 198
18 289 19 117 1 252 -10 334 -29 36 -8 75 -16 86 -18 76 -13 275 -97 275 -117
0 -5 6 -9 13 -9 21 0 123 -105 153 -156 58 -99 81 -220 62 -321 -4 -24 -12
-64 -17 -89 -8 -44 4 -51 14 -8 2 10 20 65 39 120 20 56 37 113 40 125 2 13
14 62 26 109 26 95 35 261 19 325 -5 22 -12 51 -15 65 -9 44 -64 137 -115 193
-101 114 -314 222 -494 252 -11 2 -36 6 -55 10 -19 4 -46 8 -60 10 -14 1 -56
6 -95 10 -62 7 -312 14 -318 9z"/>
<path d="M4157 4054 c-2 -2 -82 -11 -137 -15 -8 -1 -49 -8 -90 -16 -41 -7 -90
-16 -109 -19 -115 -19 -437 -126 -592 -197 -249 -114 -280 -141 -274 -243 4
-67 78 -164 154 -200 66 -32 124 -24 241 32 58 28 123 57 145 64 22 7 56 21
75 30 19 10 38 18 43 18 4 1 33 8 65 17 31 10 64 19 72 21 40 9 138 33 143 35
9 3 97 13 120 13 15 1 27 4 27 7 0 8 278 4 310 -4 14 -4 41 -10 60 -13 62 -11
175 -70 217 -112 64 -64 78 -103 78 -207 -1 -86 -3 -94 -43 -175 -51 -100 -63
-122 -81 -144 -8 -9 -12 -18 -10 -20 7 -7 49 13 49 24 0 5 5 10 11 10 12 0 43
27 117 102 163 163 260 362 260 537 0 222 -157 370 -463 437 -54 12 -379 27
-388 18z"/>
<path d="M3908 3055 c-2 -1 -29 -5 -60 -9 -47 -5 -101 -14 -228 -41 -109 -23
-337 -117 -470 -193 -158 -91 -165 -99 -143 -175 14 -46 44 -78 82 -84 76 -13
132 -2 226 42 222 104 381 146 565 150 160 4 234 -27 232 -95 -1 -37 -20 -68
-67 -112 -19 -17 -35 -35 -35 -39 0 -9 63 22 68 34 2 4 8 7 13 7 14 0 115 76
158 119 189 190 159 332 -80 387 -26 6 -255 14 -261 9z"/>
<path d="M4922 1941 c-2 -113 -9 -107 116 -107 l107 1 1 80 c0 44 -1 85 -3 91
-3 8 -41 11 -112 11 l-108 0 -1 -76z"/>
<path d="M184 1972 c-7 -5 -10 -150 -10 -467 l1 -460 105 -1 c58 0 110 3 115
7 6 5 10 120 9 313 0 169 3 303 7 299 5 -5 28 -46 52 -93 25 -47 71 -134 103
-195 33 -60 70 -132 84 -160 14 -27 27 -52 30 -55 3 -3 18 -30 33 -60 l29 -55
134 0 134 0 0 467 0 467 -112 -2 -113 -2 -1 -308 c-1 -169 -4 -310 -6 -312 -2
-3 -21 28 -41 68 -21 39 -58 110 -83 157 -25 47 -75 141 -111 210 -37 69 -74
139 -83 155 l-17 30 -124 2 c-68 1 -129 -1 -135 -5z"/>
<path d="M3949 1941 c-3 -73 2 -136 11 -141 5 -3 74 -5 153 -5 l144 1 1 -360
c0 -199 1 -368 1 -376 1 -13 21 -15 120 -15 l120 0 0 275 c0 151 0 320 1 375
l0 101 153 -1 152 0 2 91 1 90 -429 1 -429 1 -1 -37z"/>
<path d="M1477 1754 c-80 -16 -157 -56 -201 -104 -36 -39 -73 -107 -79 -146
-1 -10 -5 -23 -8 -29 -6 -11 -3 -135 4 -175 12 -70 35 -110 98 -171 47 -46 70
-59 126 -76 37 -12 77 -22 88 -22 137 -8 294 12 364 46 l36 18 -2 75 c-1 41
-2 78 -2 83 -1 4 -22 -3 -48 -16 -107 -53 -255 -75 -334 -48 -46 15 -84 56
-97 104 -10 37 -10 37 21 38 18 0 136 2 262 2 l230 2 -1 50 c-1 91 -11 135
-44 200 -18 36 -36 65 -39 65 -3 0 -21 14 -39 31 -44 42 -123 71 -199 74 -35
2 -66 5 -70 7 -5 2 -34 -1 -66 -8z m163 -161 c32 -19 69 -80 63 -105 -4 -16
-19 -18 -144 -18 -121 0 -139 2 -139 16 0 30 43 93 74 108 41 20 111 20 146
-1z"/>
<path d="M3547 1764 c-1 -1 -28 -4 -60 -7 -78 -7 -153 -36 -189 -72 -35 -36
-57 -105 -51 -164 12 -130 84 -179 305 -206 100 -13 142 -56 101 -102 -26 -28
-61 -39 -118 -37 -94 3 -220 28 -231 45 -3 5 -15 9 -28 9 -22 0 -23 -3 -21
-75 1 -41 6 -80 11 -85 5 -5 27 -12 49 -15 22 -3 46 -8 54 -11 8 -3 40 -8 70
-11 220 -25 381 24 423 127 30 72 16 186 -28 233 -34 37 -117 70 -204 81 -14
2 -52 7 -84 11 -77 10 -111 39 -95 83 11 32 8 31 104 39 74 5 163 -9 232 -38
38 -16 41 -16 45 -1 5 22 2 151 -4 157 -2 2 -20 6 -38 9 -19 3 -48 7 -65 10
-16 4 -48 8 -70 10 -22 3 -40 5 -40 6 0 2 -66 5 -68 4z"/>
<path d="M5702 1739 c-33 -16 -72 -43 -86 -60 -26 -30 -28 -29 -30 23 0 14 -5
30 -9 35 -5 4 -55 8 -112 8 l-104 0 -1 -100 c0 -55 0 -129 1 -165 0 -36 1 -69
1 -75 -4 -91 -2 -347 2 -353 3 -6 192 -9 216 -3 3 0 5 92 6 204 1 225 8 264
58 309 23 21 40 28 71 28 88 0 93 -18 95 -301 0 -128 2 -235 5 -238 2 -4 52
-6 112 -6 l108 0 1 200 c2 224 9 268 56 314 56 54 146 36 164 -33 3 -13 6
-126 7 -252 l2 -229 110 0 110 0 1 248 c0 287 -9 338 -73 402 -49 49 -74 58
-168 60 -93 2 -123 -10 -197 -83 -28 -27 -48 -40 -48 -32 0 22 -50 74 -88 94
-18 10 -54 20 -80 22 -26 3 -52 7 -58 9 -6 2 -38 -10 -72 -26z"/>
<path d="M6915 1750 c-91 -21 -178 -82 -220 -154 -74 -128 -64 -339 20 -432 5
-6 17 -21 25 -33 8 -11 20 -21 27 -21 7 0 13 -4 13 -8 0 -9 60 -40 105 -53 94
-29 243 -28 355 1 96 25 120 33 121 44 5 56 2 149 -4 153 -4 2 -40 -9 -80 -25
-158 -66 -305 -61 -364 12 -14 19 -28 40 -29 48 -1 7 -5 21 -9 31 -9 21 -35
19 277 19 l246 0 -4 72 c-3 39 -9 89 -15 111 -10 39 -68 145 -79 145 -3 0 -17
10 -31 23 -61 54 -127 75 -237 75 -48 -1 -100 -4 -117 -8z m206 -171 c27 -30
48 -79 42 -96 -4 -10 -39 -13 -145 -13 l-139 0 5 30 c5 37 43 85 76 99 14 6
51 9 82 8 46 -3 62 -8 79 -28z"/>
<path d="M2049 1735 c-2 -14 -3 -7 48 -200 24 -93 46 -177 48 -185 2 -8 9 -35
16 -60 7 -25 13 -50 15 -56 1 -6 9 -36 18 -66 8 -30 17 -63 19 -74 7 -46 16
-49 140 -50 73 0 118 4 119 11 3 21 5 30 11 45 4 8 9 26 11 40 4 19 53 219 70
285 2 6 6 27 11 48 4 20 12 40 18 44 5 3 8 2 5 -3 -4 -5 3 -43 13 -84 10 -41
21 -84 24 -95 2 -11 16 -66 30 -123 14 -56 27 -110 29 -120 9 -47 11 -48 136
-47 65 0 121 3 123 5 2 3 9 28 15 55 19 79 21 85 27 105 3 10 7 27 9 37 4 16
20 77 81 306 3 9 7 25 9 35 2 9 11 45 20 78 9 34 16 66 16 71 0 4 -47 8 -105
8 l-105 0 -10 -31 c-6 -17 -12 -40 -14 -50 -2 -10 -12 -50 -21 -89 -9 -38 -18
-74 -19 -80 -22 -99 -51 -205 -57 -205 -4 0 -10 17 -14 38 -10 48 -9 43 -35
142 -12 47 -23 92 -25 100 -13 62 -39 157 -46 165 -4 6 -46 11 -95 10 -95 -1
-96 -1 -109 -76 -3 -17 -24 -103 -46 -192 -22 -89 -41 -170 -42 -179 -3 -45
-18 -5 -56 155 -23 94 -45 183 -48 197 -3 14 -8 33 -10 44 -9 47 -16 50 -122
51 -63 1 -101 -3 -102 -10z"/>
<path d="M4925 1740 c-1 -3 -2 -160 -1 -350 l1 -345 108 0 c87 0 108 3 111 15
3 13 1 668 -3 680 -2 7 -212 7 -216 0z"/>
<path d="M6395 900 c-731 -5 -793 -6 -818 -22 -30 -20 -49 -51 -53 -88 -7 -54
-5 -547 2 -575 9 -37 40 -71 79 -85 43 -16 1647 -15 1677 1 29 16 53 39 67 67
12 23 18 548 7 601 -13 59 -53 91 -126 100 -25 3 -401 4 -835 1z m-487 -184
c59 -3 79 -9 98 -27 46 -44 48 -104 4 -151 -20 -22 -20 -22 -1 -30 48 -18 68
-89 40 -145 -32 -65 -64 -77 -216 -81 l-133 -4 0 221 0 220 58 3 c31 2 62 2
67 1 6 -1 43 -4 83 -7z m458 2 l93 2 -1 -40 0 -40 -52 -1 c-28 -1 -55 0 -61 1
-5 1 -36 3 -68 4 l-57 1 0 -52 0 -53 120 0 120 0 0 -40 0 -40 -120 0 -120 0 0
-50 c0 -57 -15 -52 152 -50 l87 1 -1 -40 0 -41 -159 0 -159 0 0 220 0 219 58
3 c31 2 61 1 66 -1 5 -2 50 -3 102 -3z m312 -3 c28 0 52 3 52 7 0 3 8 4 18 2
9 -3 37 -6 62 -7 44 -2 45 -2 48 -40 l3 -38 -58 1 c-89 0 -88 0 -87 -35 1 -18
3 -36 6 -41 3 -5 2 -18 -2 -29 -4 -11 -4 -32 1 -47 4 -16 4 -28 -1 -28 -4 0
-5 -12 -1 -27 4 -16 4 -40 0 -55 -4 -16 -4 -28 1 -28 5 0 5 -13 0 -29 -6 -21
-5 -31 3 -35 7 -2 -14 -5 -45 -5 l-58 -1 0 175 c0 196 3 188 -74 189 -40 1
-41 2 -44 38 l-3 37 51 -1 c28 0 54 3 58 6 3 4 8 3 11 -1 3 -5 30 -8 59 -8z
m489 -210 c45 -116 83 -213 83 -217 0 -5 -20 -8 -44 -8 l-44 0 -18 55 c-9 31
-20 58 -24 60 -11 7 -159 10 -165 4 -3 -3 -13 -30 -23 -60 l-19 -54 -47 -3
-46 -3 14 33 c8 18 31 78 51 133 20 55 43 114 50 130 7 17 18 44 24 60 33 93
27 86 78 83 l47 -3 83 -210z"/>
<path d="M5803 642 c-20 -3 -23 -9 -23 -53 l0 -50 63 2 c34 1 72 7 84 12 27
12 39 55 20 74 -13 14 -95 22 -144 15z"/>
<path d="M5843 462 l-63 -3 0 -49 c0 -33 4 -50 13 -51 30 -2 114 2 139 7 38 7
55 58 28 81 -21 18 -28 19 -117 15z"/>
<path d="M7034 602 c-6 -4 -14 -20 -18 -36 -4 -16 -15 -46 -25 -66 l-18 -37
64 -2 c57 -2 62 0 56 16 -3 10 -9 23 -14 28 -4 6 -13 31 -21 57 -8 29 -17 44
-24 40z"/>
</g>
</svg>
